<svg xmlns="http://www.w3.org/2000/svg" width="226" height="35" viewBox="0 0 226 35"><g fill="#fff" fill-rule="evenodd"><path d="M224.434 11.995c0-.496-.367-.626-.806-.626h-.612c-.206 0-.25.1-.25.226v1.654c0 .17.054.255.246.255.187 0 .24-.107.24-.255v-.631h.165l.34.631c.072.129.128.255.299.255.18 0 .253-.067.253-.188a.243.243 0 0 0-.034-.113l-.382-.62c.347-.015.541-.208.541-.588zm-.772.237h-.41v-.477h.41c.174 0 .286.05.286.24s-.112.237-.286.237z"/><path d="M223.565 10.433a1.98 1.98 0 0 0-1.987 1.968 1.98 1.98 0 0 0 1.987 1.97c1.1 0 1.992-.883 1.992-1.97a1.98 1.98 0 0 0-1.992-1.968m0 3.458a1.495 1.495 0 0 1-1.504-1.49c0-.821.672-1.485 1.504-1.485.836 0 1.508.664 1.508 1.485 0 .824-.672 1.49-1.508 1.49m-40.642-3.458c-6.627 0-12 5.31-12 11.858 0 6.551 5.373 11.86 12 11.86 6.63 0 12.001-5.309 12.001-11.86 0-6.549-5.371-11.858-12-11.858m7.205 12.89l-5.65 5.589a4.155 4.155 0 0 1-2.924 1.196h-.004a4.156 4.156 0 0 1-2.924-1.196 4.065 4.065 0 0 1-1.215-2.89v-.011c0-1.04.408-2.091 1.215-2.887l.837-.833-.837-.828a4.07 4.07 0 0 1-1.215-2.89v-.011c0-1.04.408-2.093 1.215-2.886a4.135 4.135 0 0 1 2.905-1.197h.026a4.16 4.16 0 0 1 2.92 1.197l1.883 1.864 3.768 3.725c.012.01.02.026.035.03.249.269.4.618.4 1a1.47 1.47 0 0 1-.435 1.028m-58.312-12.89c-6.628 0-12 5.31-12 11.858 0 6.551 5.372 11.86 12 11.86 6.627 0 11.999-5.309 11.999-11.86 0-6.549-5.372-11.858-12-11.858m7.205 12.89l-5.65 5.589a4.158 4.158 0 0 1-2.924 1.196h-.004a4.153 4.153 0 0 1-2.923-1.196 4.059 4.059 0 0 1-1.215-2.89v-.011a4.05 4.05 0 0 1 1.215-2.887l.837-.833-.837-.828a4.064 4.064 0 0 1-1.215-2.89v-.011c0-1.04.407-2.093 1.215-2.886a4.13 4.13 0 0 1 2.903-1.197h.028c1.055 0 2.116.406 2.92 1.197l1.881 1.864 3.77 3.725c.01.01.018.026.032.03.25.269.4.618.4 1-.004.39-.162.756-.433 1.028M20.201 33.602V17.76c0-5.086-2.5-7.878-8.061-7.878-2.27 0-4.723.824-6.395 2.84h-.094v-2.29H0v23.17h5.65V21.377c0-4.258 2.272-6.089 5.006-6.089 2.92 0 3.89 2.059 3.89 4.165v14.149h5.655zm26.41-5.13l-4.772-2.744c-.555.775-2.32 3.295-6.765 3.295-3.06 0-5.975-2.243-6.07-5.678h17.327c0-8.288-3.429-13.463-11.257-13.463-7.597 0-12 5.22-12 12.135s4.403 12.134 12 12.134c6.391 0 9.775-3.02 11.536-5.679M35.074 14.46c3.8 0 5.328 3.344 5.328 4.583H29.005c.6-2.477 2.78-4.583 6.07-4.583M74.408 10.433l-3.938 15.75h-.094l-4.398-15.75h-5.097l-4.403 15.75h-.09l-3.939-15.75H46.61l6.768 23.169h5.557l4.447-15.521h.09l4.452 15.521h5.559l6.762-23.169zM109.213 9.882c-3.15 0-5.512 1.237-7.228 3.483-1.16-2.567-4.123-3.483-6.904-3.483-3.011 0-5.051 1.1-6.764 2.84v-2.29h-5.651v23.17h5.651V21.377c0-3.296 1.901-6.365 4.957-6.365 2.735 0 3.937 1.876 3.937 4.534v14.056h5.652V21.377c0-3.296 1.901-6.365 5.051-6.365 2.641 0 3.845 1.876 3.845 4.534v14.056h5.654v-16.3c0-4.993-3.106-7.42-8.2-7.42m48.734 18.866c-.834.094-1.713.275-2.502.275-2.174 0-2.546-1.006-2.546-2.84V14.461h5.048v-4.028H152.9v-8.2h-5.654v8.2h-3.43v4.028h3.43v13.828c0 3.527 1.576 5.59 6.21 5.59 1.762 0 3.15-.276 4.492-.551v-4.58zM162.127 6.678h5.65V1h-5.65zM162.127 33.602h5.65v-23.17h-5.65zM209.708 9.882c-2.268 0-4.724.824-6.39 2.84h-.094v-2.29h-5.651v23.17h5.65V21.377c0-4.258 2.27-6.088 5.007-6.088 2.92 0 3.89 2.058 3.89 4.164v14.149h5.654V17.76c0-5.086-2.506-7.878-8.066-7.878"/></g></svg>
