<svg xmlns="http://www.w3.org/2000/svg" width="2000" height="1514.6667"><g fill="#fff" fill-rule="evenodd"><path d="M1899.83943 1286.54521c0-3.860312-2.85632-4.872087-6.273006-4.872087h-4.763126c-1.603274 0-1.945721.778289-1.945721 1.758932v12.872892c0 1.32309.420276 1.984636 1.91459 1.984636 1.4554 0 1.867892-.832769 1.867892-1.984636v-4.911h1.284176l2.646181 4.911c.560368 1.003993.99621 1.984636 2.327083 1.984636 1.40092 0 1.96907-.521453 1.96907-1.463182a1.891241 1.891241 0 0 0-.264618-.879466l-2.973063-4.82539c2.700662-.116743 4.210541-1.61884 4.210541-4.576336zm-6.008388 1.844543h-3.190983v-3.712436h3.190983c1.354222 0 2.225905.389144 2.225905 1.867892 0 1.478748-.871683 1.844544-2.225905 1.844544z"/><path d="M1893.076102 1274.388342a15.410113 15.410113 0 0 0-15.464593 15.316719 15.410113 15.410113 0 0 0 15.464593 15.332284c8.561174 0 15.503508-6.872288 15.503508-15.332284a15.410113 15.410113 0 0 0-15.503508-15.316719m0 26.913218a11.635414 11.635414 0 0 1-11.70546-11.5965c0-6.389748 5.2301-11.557584 11.70546-11.557584 6.506492 0 11.736591 5.167836 11.736591 11.557585 0 6.413097-5.230099 11.596499-11.73659 11.596499m-316.312025-26.913218c-51.577181 0-93.394624 41.327121-93.394624 92.289454 0 50.985682 41.817443 92.30502 93.394624 92.30502 51.60053 0 93.402406-41.319338 93.402406-92.30502 0-50.970116-41.801877-92.289454-93.394623-92.289454m56.075688 100.321392l-43.973302 43.498546a32.337888 32.337888 0 0 1-22.757156 9.30833h-.031132a32.345671 32.345671 0 0 1-22.757157-9.30833 31.637429 31.637429 0 0 1-9.456205-22.492539v-.085611c0-8.094201 3.175417-16.274014 9.456205-22.46919l6.514275-6.483144-6.514275-6.444229a31.676343 31.676343 0 0 1-9.456205-22.492538v-.085612c0-8.0942 3.175417-16.289579 9.456205-22.461407a32.18223 32.18223 0 0 1 22.609282-9.316114h.202355a32.376803 32.376803 0 0 1 22.726025 9.316114l14.655173 14.507298 29.325912 28.991248c.093395.077829.155658.202355.272401.233486 1.937939 2.093597 3.113154 4.809824 3.113154 7.782886a11.440841 11.440841 0 0 1-3.385555 8.000806m-453.835607-100.321392c-51.584964 0-93.394624 41.327121-93.394624 92.289454 0 50.985682 41.80966 92.30502 93.394624 92.30502 51.57718 0 93.38684-41.319338 93.38684-92.30502 0-50.970116-41.80966-92.289454-93.394623-92.289454m56.075688 100.321392l-43.973302 43.498546a32.361237 32.361237 0 0 1-22.757156 9.30833h-.031132a32.322323 32.322323 0 0 1-22.749374-9.30833 31.590731 31.590731 0 0 1-9.456205-22.492539v-.085611a31.520685 31.520685 0 0 1 9.456205-22.46919l6.514275-6.483144-6.514275-6.444229a31.629646 31.629646 0 0 1-9.456205-22.492538v-.085612c0-8.0942 3.167634-16.289579 9.456205-22.461407a32.143316 32.143316 0 0 1 22.593716-9.316114h.217921c8.210944 0 16.468586 3.159852 22.726025 9.316114l14.639608 14.507298 29.341477 28.991248c.077829.077829.140092.202355.249053.233486 1.94572 2.093597 3.113154 4.809824 3.113154 7.782886-.031132 3.035325-1.260828 5.883861-3.36999 8.000806m-924.762431 80.000278v-123.29647c0-39.583754-19.457213-61.31357-62.737838-61.31357-17.66715 0-36.758568 6.413098-49.771552 22.103395h-.731591v-17.822808H153.09535v180.329453h43.973302v-95.145773c0-33.139526 17.682715-47.389989 38.961124-47.389989 22.726025 0 30.275424 16.024961 30.275424 32.415718v110.120044zm205.546-39.926202l-37.139928-21.356237c-4.319501 6.031736-18.056294 25.644607-52.651219 25.644607-23.815629 0-46.50274-17.457012-47.242114-44.191223H513.68421c0-64.504553-26.687514-104.780984-87.61194-104.780984-59.12658 0-93.394624 40.62666-93.394624 94.445313 0 53.818651 34.268044 94.43753 93.394624 94.43753 49.74042 0 76.077704-23.504314 89.783365-44.199006m-89.783365-109.053789c29.574964 0 41.467213 26.025969 41.467213 35.668964h-88.701544c4.669731-19.278207 21.636421-35.668964 47.242114-35.668964m306.124227-31.341679l-30.649002 122.580444h-.731591l-34.22913-122.580444H626.92519l-34.268044 122.580444h-.70046l-30.656785-122.580444h-45.444267l52.674568 180.32167h43.249493l34.610491-120.798163h.70046l34.649405 120.798163h43.26506l52.62787-180.32167zm270.883323-4.28837c-24.516088 0-42.899264 9.62743-56.254695 27.10779-9.028147-19.978667-32.088836-27.10779-53.73304-27.10779-23.434267 0-39.311353 8.561174-52.643436 22.103395v-17.822808h-43.981085v180.329453h43.981085v-95.145773c0-25.65239 14.795265-49.538065 38.579762-49.538065 21.286192 0 30.64122 14.600693 30.64122 35.287602v109.396236h43.988868v-95.145773c0-25.65239 14.795265-49.538065 39.311353-49.538065 20.5546 0 29.925194 14.600693 29.925194 35.287602v109.396236h44.004434v-126.86103c0-38.859947-24.173642-57.74901-63.81966-57.74901m379.291132 146.831915c-6.490926.73159-13.332082 2.140293-19.472779 2.140293-16.919992 0-19.815226-7.829583-19.815226-22.103394v-91.230982h39.288005v-31.349462h-39.280222v-63.81966h-44.004433v63.81966h-26.695297v31.349462h26.695297v107.621738c0 27.450237 12.265827 43.50633 48.331718 43.50633 13.713443 0 24.516088-2.148077 34.96072-4.28837v-35.645615zm32.532461-171.768279h43.973302v-44.191223h-43.973302zm0 209.546404h43.973302v-180.329453h-43.973302zm370.317465-184.61004c-17.651583 0-36.76635 6.413098-49.732637 22.103395h-.73159v-17.822808h-43.981086v180.329453h43.973302v-95.145773c0-33.139526 17.66715-47.382206 38.968907-47.382206 22.726025 0 30.275424 16.017178 30.275424 32.407935v110.120044h44.004433v-123.29647c0-39.583754-19.50391-61.31357-62.776753-61.31357M1002.428937 56.621838c-295.189492 0-534.441099 236.490286-534.441099 528.117208 0 291.76047 239.251607 528.206253 534.441099 528.206253 295.1453 0 534.396953-236.445784 534.396953-528.206253 0-291.67144-239.251653-528.117208-534.441394-528.117208m320.887505 574.07917L1071.639178 879.61709c-34.71019 34.196675-81.49965 53.335031-130.225338 53.265997h-.178228c-48.715196.089036-95.495302-19.059515-130.181-53.265997-34.546733-33.925449-54.040035-80.291801-54.11219-128.71131v-.489933c.04514-48.381645 19.560562-94.710141 54.11219-128.577693l37.27729-37.099139-37.27729-36.876454c-34.525805-33.9397-54.015099-80.296713-54.11219-128.711357v-.489544c0-46.318207 18.126472-93.21554 54.11219-128.533183 34.3971-34.099545 80.855649-53.255716 129.290249-53.310507h1.24713c46.985978 0 94.239533 18.0819 130.04711 53.310507l83.773654 83.016613 167.903686 165.899493c.445182.445336.801716 1.15796 1.425125 1.336103 11.134195 11.98039 17.814713 27.52373 17.814713 44.536783-.178228 17.369353-7.214968 33.669805-19.284356 45.783819"/></g></svg>
