<svg xmlns="http://www.w3.org/2000/svg" viewBox="0 0 7.938 7.938"><g transform="translate(0 -289.063)"><circle cx="3.969" cy="293.031" r="3.969" fill="#fff"/><circle cx="3.969" cy="293.031" r="3.147" fill="none" stroke="#6aa271" stroke-linejoin="round" stroke-width=".584"/><path fill="#6aa271" d="M5.543 293.26l-1.25 1.236a.92.92 0 0 1-1.295 0 .9.9 0 0 1-.27-.64v-.002c0-.23.09-.463.27-.64l.185-.183-.186-.183a.9.9 0 0 1-.268-.64v-.003c0-.23.09-.463.268-.639a.915.915 0 0 1 .643-.264h.006a.92.92 0 0 1 .646.264l.417.413.834.824a.325.325 0 0 1 .096.227.325.325 0 0 1-.096.228"/></g></svg>
