<svg xmlns="http://www.w3.org/2000/svg" viewBox="0 0 7.938 7.938"><g transform="translate(0 -289.063)"><circle cx="3.969" cy="293.031" r="3.969" fill="#fff"/><circle cx="3.969" cy="293.031" r="3.147" fill="none" stroke="#888" stroke-linejoin="round" stroke-width=".584"/><g fill="#888" stroke-width=".265"><path d="M2.747 292.525h.681c0-.083.01-.16.028-.232a.562.562 0 0 1 .083-.19.427.427 0 0 1 .366-.18c.123 0 .22.034.287.102.071.068.106.173.106.315a.366.366 0 0 1-.046.208.58.58 0 0 1-.125.153c-.052.046-.11.092-.171.139a1.11 1.11 0 0 0-.324.393c-.04.09-.065.201-.074.334v.208h.625v-.176a.486.486 0 0 1 .088-.231.92.92 0 0 1 .166-.162c.062-.05.127-.098.195-.144a.933.933 0 0 0 .333-.421.953.953 0 0 0 .06-.366c0-.09-.02-.185-.06-.287a.78.78 0 0 0-.19-.292 1.036 1.036 0 0 0-.356-.222 1.402 1.402 0 0 0-.547-.093c-.17 0-.324.03-.463.088a1.023 1.023 0 0 0-.578.598 1.36 1.36 0 0 0-.084.458z"/><path d="M3.556 294.053v.615h.627v-.615z"/></g></g></svg>
